<?xml version="1.0" encoding="UTF-8" standalone="no"?>
<!DOCTYPE svg PUBLIC "-//W3C//DTD SVG 1.1//EN" "http://www.w3.org/Graphics/SVG/1.1/DTD/svg11.dtd">
<svg width="100%" height="100%" viewBox="0 0 11000 2000" version="1.1" xmlns="http://www.w3.org/2000/svg" xmlns:xlink="http://www.w3.org/1999/xlink" xml:space="preserve" xmlns:serif="http://www.serif.com/" style="fill-rule:evenodd;clip-rule:evenodd;stroke-linejoin:round;stroke-miterlimit:2;">
    <g transform="matrix(1,0,0,1,-12378.8,-12776.6)">
        <g id="ADRW-Digital-XYZ" serif:id="ADRW Digital XYZ" transform="matrix(5.5,0,0,1,12378.8,12776.6)">
            <rect x="0" y="0" width="2000" height="2000" style="fill:none;"/>
            <g transform="matrix(0.181818,0,0,1,744.869,817.594)">
                <text x="958.472px" y="772.406px" style="font-family:'AvenirNext-Regular', 'Avenir Next', sans-serif;font-size:1666.67px;">I</text>
            </g>
            <g transform="matrix(0.181818,0,0,1,789.111,817.594)">
                <text x="958.472px" y="772.406px" style="font-family:'AvenirNext-Regular', 'Avenir Next', sans-serif;font-size:1666.67px;">G</text>
            </g>
            <g transform="matrix(0.181818,0,0,1,980.323,817.594)">
                <text x="958.472px" y="772.406px" style="font-family:'AvenirNext-Regular', 'Avenir Next', sans-serif;font-size:1666.67px;">I</text>
            </g>
            <g transform="matrix(0.181818,0,0,1,1037.9,817.594)">
                <text x="958.472px" y="772.406px" style="font-family:'AvenirNext-Regular', 'Avenir Next', sans-serif;font-size:1666.67px;">T</text>
            </g>
            <g transform="matrix(0.181818,0,0,1,1178.51,817.594)">
                <text x="958.472px" y="772.406px" style="font-family:'AvenirNext-Regular', 'Avenir Next', sans-serif;font-size:1666.67px;">A</text>
            </g>
            <g transform="matrix(0.181818,0,0,1,1370.02,817.594)">
                <text x="958.472px" y="772.406px" style="font-family:'AvenirNext-Regular', 'Avenir Next', sans-serif;font-size:1666.67px;">L</text>
            </g>
            <g transform="matrix(0.181818,0,0,1,550.02,817.594)">
                <text x="958.472px" y="772.406px" style="font-family:'AvenirNext-Regular', 'Avenir Next', sans-serif;font-size:1666.67px;">D</text>
            </g>
            <g transform="matrix(0.181818,0,0,1,304.02,817.594)">
                <text x="958.472px" y="772.406px" style="font-family:'AvenirNext-UltraLight', 'Avenir Next', sans-serif;font-weight:275;font-size:1666.67px;">W</text>
            </g>
            <g transform="matrix(0.181818,0,0,1,172.051,817.594)">
                <text x="958.472px" y="772.406px" style="font-family:'AvenirNext-UltraLight', 'Avenir Next', sans-serif;font-weight:275;font-size:1666.67px;">R</text>
            </g>
            <g transform="matrix(0.181818,0,0,1,-2.79788,817.594)">
                <text x="958.472px" y="772.406px" style="font-family:'AvenirNext-UltraLight', 'Avenir Next', sans-serif;font-weight:275;font-size:1666.67px;">D</text>
            </g>
            <g transform="matrix(0.181818,0,0,1,-160.313,817.594)">
                <text x="958.472px" y="772.406px" style="font-family:'AvenirNext-UltraLight', 'Avenir Next', sans-serif;font-weight:275;font-size:1666.67px;">A</text>
            </g>
            <g transform="matrix(0.181818,0,0,1,1542.57,817.594)">
                <text x="958.472px" y="772.406px" style="font-family:'AvenirNext-Regular', 'Avenir Next', sans-serif;font-size:1666.67px;">X</text>
            </g>
            <g transform="matrix(0.181818,0,0,1,1549.69,817.594)">
                <text x="958.472px" y="772.406px" style="font-family:'AvenirNext-Regular', 'Avenir Next', sans-serif;font-size:1666.67px;">Y</text>
            </g>
            <g transform="matrix(0.181818,0,0,1,1671.23,451.891)">
                <text x="314.975px" y="1138.11px" style="font-family:'AvenirNext-Regular', 'Avenir Next', sans-serif;font-size:1666.67px;">Z</text>
            </g>
        </g>
    </g>
</svg>
